HIERARCHY
ROOT Hips
{
	OFFSET -0.001795 -0.223333 0.028219
	CHANNELS 6 Xposition Yposition Zposition Zrotation Yrotation Xrotation 
	JOINT LeftUpLeg
	{
		OFFSET 0.069520 -0.091406 -0.006815
		CHANNELS 3 Zrotation Yrotation Xrotation
		JOINT LeftLeg
		{
			OFFSET 0.034277 -0.375199 -0.004496
			CHANNELS 3 Zrotation Yrotation Xrotation
			JOINT LeftFoot
			{
				OFFSET -0.013596 -0.397961 -0.043693
				CHANNELS 3 Zrotation Yrotation Xrotation
				JOINT LeftToe
				{
					OFFSET 0.026358 -0.055791 0.119288
					CHANNELS 3 Zrotation Yrotation Xrotation
					End Site
					{
						OFFSET 0.000000 0.000000 0.000000
					}
				}
			}
		}
	}
	JOINT RightUpLeg
	{
		OFFSET -0.067670 -0.090522 -0.004320
		CHANNELS 3 Zrotation Yrotation Xrotation
		JOINT RightLeg
		{
			OFFSET -0.038290 -0.382569 -0.008850
			CHANNELS 3 Zrotation Yrotation Xrotation
			JOINT RightFoot
			{
				OFFSET 0.015774 -0.398415 -0.042312
				CHANNELS 3 Zrotation Yrotation Xrotation
				JOINT RightToe
				{
					OFFSET -0.025372 -0.048144 0.123348
					CHANNELS 3 Zrotation Yrotation Xrotation
					End Site
					{
						OFFSET 0.000000 0.000000 0.000000
					}
				}
			}
		}
	}
	JOINT Spine
	{
		OFFSET -0.002533 0.108963 -0.026696
		CHANNELS 3 Zrotation Yrotation Xrotation
		JOINT Spine1
		{
			OFFSET 0.005487 0.135180 0.001092
			CHANNELS 3 Zrotation Yrotation Xrotation
			JOINT Spine2
			{
				OFFSET 0.001457 0.052922 0.025425
				CHANNELS 3 Zrotation Yrotation Xrotation
				JOINT Neck
				{
					OFFSET -0.002778 0.213870 -0.042857
					CHANNELS 3 Zrotation Yrotation Xrotation
					JOINT Head
					{
						OFFSET 0.005152 0.064970 0.051349
						CHANNELS 3 Zrotation Yrotation Xrotation
						End Site
						{
							OFFSET 0.000000 0.000000 0.000000
						}
					}
				}
				JOINT LeftShoulder
				{
					OFFSET 0.078845 0.121749 -0.034090
					CHANNELS 3 Zrotation Yrotation Xrotation
					JOINT LeftArm
					{
						OFFSET 0.090977 0.030469 -0.008868
						CHANNELS 3 Zrotation Yrotation Xrotation
						JOINT LeftForeArm
						{
							OFFSET 0.259612 -0.012772 -0.027456
							CHANNELS 3 Zrotation Yrotation Xrotation
							JOINT LeftHand
							{
								OFFSET 0.249234 0.008986 -0.001171
								CHANNELS 3 Zrotation Yrotation Xrotation
								End Site
								{
									OFFSET 0.000000 0.000000 0.000000
								}
							}
						}
					}
				}
				JOINT RightShoulder
				{
					OFFSET -0.081759 0.118833 -0.038615
					CHANNELS 3 Zrotation Yrotation Xrotation
					JOINT RightArm
					{
						OFFSET -0.096012 0.032551 -0.009143
						CHANNELS 3 Zrotation Yrotation Xrotation
						JOINT RightForeArm
						{
							OFFSET -0.253742 -0.013329 -0.021401
							CHANNELS 3 Zrotation Yrotation Xrotation
							JOINT RightHand
							{
								OFFSET -0.255298 0.007772 -0.005559
								CHANNELS 3 Zrotation Yrotation Xrotation
								End Site
								{
									OFFSET 0.000000 0.000000 0.000000
								}
							}
						}
					}
				}
			}
		}
	}
}
MOTION
Frames: 17
Frame Time: 0.050000
0.022091 0.942755 0.052657 -3.189343 11.098108 2.315783 7.083317 -0.435276 -4.572297 -1.953595 0.124144 1.828416 -2.415002 -1.502341 5.449810 0.000000 0.000000 0.000000 -0.315592 0.091557 -0.804610 -0.794041 0.136013 0.915746 -1.506311 -5.608590 7.874226 0.000000 0.000000 0.000000 5.561812 -0.035455 -1.062036 -10.325164 4.562167 -3.299266 -3.097219 18.747832 9.771723 17.436119 -6.277463 -19.687874 0.000000 0.000000 0.000000 -17.128306 -22.505394 3.198405 -54.057810 -15.924174 1.462580 8.311905 -40.193105 -4.514777 0.000000 0.000000 0.000000 15.351242 22.258021 16.290953 72.593469 50.250792 30.865534 176.130772 73.449219 -165.137406 0.000000 0.000000 0.000000 
0.021440 0.942761 0.053431 -3.249203 11.035730 2.357646 7.344635 -0.440033 -4.601375 -1.837929 0.114397 1.771187 -2.374221 -1.426527 5.455006 0.000000 0.000000 0.000000 -0.200957 0.087877 -0.769941 -0.754988 0.132046 0.948756 -1.345567 -5.221204 7.634637 0.000000 0.000000 0.000000 5.599336 -0.038280 -1.048840 -10.304086 4.555607 -3.250036 -3.172570 18.876873 9.591976 17.710066 -6.456254 -19.662151 0.000000 0.000000 0.000000 -17.553211 -22.905939 3.287144 -54.095642 -16.100408 1.638614 8.831036 -39.504472 -4.602850 0.000000 0.000000 0.000000 15.513048 22.297074 16.413684 72.062740 49.834667 30.154724 172.946156 72.529132 -169.245256 0.000000 0.000000 0.000000 
0.021009 0.943023 0.053601 -3.213202 11.024809 2.492361 7.302986 -0.445857 -4.759338 -1.720134 0.098834 1.921078 -2.435246 -1.459307 5.595257 0.000000 0.000000 0.000000 -0.230382 0.100093 -0.883759 -0.778852 0.139924 1.070714 -1.099350 -4.669984 7.549773 0.000000 0.000000 0.000000 5.706027 -0.043593 -1.042369 -10.407730 4.599049 -3.190212 -3.444445 19.034423 9.242288 17.742084 -6.449764 -19.651399 0.000000 0.000000 0.000000 -17.613689 -23.207217 3.362473 -54.250077 -16.843010 2.014538 9.422937 -39.167145 -4.803719 0.000000 0.000000 0.000000 15.697564 22.271174 16.539366 71.709522 49.641753 29.767008 171.058096 72.204896 -171.773597 0.000000 0.000000 0.000000 
0.020684 0.943387 0.053466 -3.216085 11.274205 2.551041 7.292399 -0.453921 -4.865924 -1.550140 0.079439 1.962600 -2.426395 -1.410908 5.617091 0.000000 0.000000 0.000000 -0.222531 0.092662 -0.810746 -0.642450 0.115320 0.906553 -1.018890 -4.494629 7.659563 0.000000 0.000000 0.000000 5.856109 -0.048260 -1.050665 -10.583088 4.675870 -3.014476 -3.449533 19.212800 9.033596 17.616073 -6.365158 -19.522234 0.000000 0.000000 0.000000 -17.897923 -23.780178 3.487874 -54.428266 -17.536439 2.430022 10.418056 -38.865865 -5.184435 0.000000 0.000000 0.000000 15.967325 22.370533 16.807290 70.977426 49.463373 29.124365 170.340672 72.045591 -172.643063 0.000000 0.000000 0.000000 
0.020383 0.943404 0.053174 -3.158738 11.643728 2.783961 7.363384 -0.470130 -5.060100 -1.711306 0.097911 1.801575 -2.670651 -1.607823 6.015073 0.000000 0.000000 0.000000 -0.204482 0.089168 -0.771761 -0.645607 0.111832 0.804168 -0.983528 -4.382206 7.661779 0.000000 0.000000 0.000000 6.026471 -0.052107 -1.121935 -10.558788 4.661962 -2.933550 -3.534200 19.197991 8.836655 17.526781 -6.254149 -19.577456 0.000000 0.000000 0.000000 -17.856231 -23.932404 3.509055 -54.695227 -18.309428 2.790724 11.424927 -38.461407 -5.529038 0.000000 0.000000 0.000000 16.191840 22.574865 17.097354 70.694144 49.510934 28.949797 169.911448 72.348474 -173.229143 0.000000 0.000000 0.000000 
0.019945 0.943633 0.052827 -3.017586 11.796284 3.051733 7.398483 -0.482215 -5.239497 -1.989870 0.128614 1.605711 -2.726287 -1.500232 6.352177 0.000000 0.000000 0.000000 -0.418637 0.093752 -0.805501 -0.287379 0.063389 0.796689 -1.020380 -4.401893 7.435516 0.000000 0.000000 0.000000 6.155641 -0.053825 -1.203968 -10.791221 4.748787 -2.967449 -3.345096 19.498005 8.875326 17.385872 -6.006960 -19.896129 0.000000 0.000000 0.000000 -17.831983 -24.315529 3.593696 -54.683994 -18.740045 3.012300 12.914293 -38.101493 -6.085122 0.000000 0.000000 0.000000 16.497630 22.325852 17.198269 71.042953 49.414122 29.032495 167.223114 72.458150 -176.733613 0.000000 0.000000 0.000000 
0.019425 0.943711 0.052417 -2.916857 12.264574 3.291786 7.299801 -0.494235 -5.315936 -2.065708 0.140346 1.279039 -3.012346 -1.839675 6.613279 0.000000 0.000000 0.000000 -0.393532 0.095338 -0.815713 -0.193568 0.043296 0.584269 -1.250726 -4.868980 7.492419 0.000000 0.000000 0.000000 6.303983 -0.053849 -1.320931 -10.758758 4.720803 -3.063567 -3.348162 19.611386 8.974951 17.475627 -5.935054 -20.160273 0.000000 0.000000 0.000000 -17.879253 -24.365445 3.499087 -54.425867 -18.861904 3.090375 14.662871 -37.476538 -6.676079 0.000000 0.000000 0.000000 16.917831 22.523942 17.622717 71.639782 49.199666 29.116751 165.517384 72.391804 -178.865171 0.000000 0.000000 0.000000 
0.018844 0.943812 0.051990 -2.816428 12.622781 3.559717 7.201829 -0.507450 -5.479777 -2.019189 0.141998 0.919374 -3.293055 -1.955157 7.223953 0.000000 0.000000 0.000000 -0.410253 0.115694 -1.006724 -0.114805 0.029370 0.490624 -1.352767 -5.056136 7.496295 0.000000 0.000000 0.000000 6.463797 -0.045072 -1.543371 -10.981262 4.804845 -2.997970 -3.173846 19.927022 9.016802 17.555284 -5.766421 -20.646034 0.000000 0.000000 0.000000 -17.758122 -24.569747 3.482913 -53.931027 -19.005728 3.162227 16.073123 -37.158017 -7.212381 0.000000 0.000000 0.000000 17.118140 22.264272 17.703122 72.767378 49.592243 30.133584 164.565922 72.902767 -179.900375 0.000000 0.000000 0.000000 
0.018257 0.943882 0.051521 -2.667274 13.092836 3.639787 7.015884 -0.512202 -5.465222 -1.825896 0.129158 0.648050 -3.656336 -2.387072 7.532571 0.000000 0.000000 0.000000 -0.468999 0.093655 -0.791739 -0.035162 0.005864 0.109122 -1.545389 -5.481486 7.781327 0.000000 0.000000 0.000000 6.536529 -0.060849 -1.430603 -11.086832 4.832917 -3.108440 -2.978820 20.018467 9.329457 17.309757 -5.464525 -20.967761 0.000000 0.000000 0.000000 -17.692640 -24.438349 3.340225 -53.460557 -19.062135 3.158286 17.066295 -37.124504 -7.628009 0.000000 0.000000 0.000000 17.321676 22.474083 18.011239 73.755674 50.039050 31.074611 164.685426 73.714280 -179.570685 0.000000 0.000000 0.000000 
0.017653 0.944133 0.051024 -2.626341 13.419057 3.755679 6.891276 -0.516482 -5.468922 -1.603254 0.119865 0.200805 -4.062907 -2.798010 8.008464 0.000000 0.000000 0.000000 -0.501183 0.091311 -0.766804 0.153850 -0.027013 -0.133566 -1.790289 -5.998719 7.895878 0.000000 0.000000 0.000000 6.672771 -0.047114 -1.661291 -11.256817 4.903892 -2.922832 -2.861086 20.303576 9.392509 17.423507 -5.456282 -21.069755 0.000000 0.000000 0.000000 -17.527591 -24.547462 3.298367 -52.880231 -18.991199 3.123529 17.690472 -37.556011 -8.042539 0.000000 0.000000 0.000000 17.499737 22.406130 18.179905 74.921425 50.831463 32.498491 166.235765 75.257717 -177.354686 0.000000 0.000000 0.000000 
0.016980 0.944172 0.050576 -2.481896 13.880163 3.826694 6.716476 -0.516824 -5.363646 -1.437223 0.114699 -0.200017 -4.380595 -3.243125 8.145782 0.000000 0.000000 0.000000 -0.678103 0.066892 -0.528316 0.467546 -0.082989 -0.614511 -2.014952 -6.472048 8.096803 0.000000 0.000000 0.000000 6.618454 -0.053866 -1.609838 -11.446420 4.975461 -2.841304 -2.567253 20.398265 9.532238 17.280297 -5.330432 -21.072643 0.000000 0.000000 0.000000 -17.494412 -24.472872 3.179795 -52.309054 -18.905804 3.097134 18.004050 -38.508153 -8.456292 0.000000 0.000000 0.000000 17.292852 22.428899 18.156321 76.191636 51.317292 33.858740 167.952691 76.668112 -175.187462 0.000000 0.000000 0.000000 
0.016138 0.944447 0.050197 -2.375880 14.005638 3.945232 6.483398 -0.516648 -5.394870 -1.247368 0.105800 -0.434676 -4.613473 -3.510943 8.364523 0.000000 0.000000 0.000000 -0.812057 0.052189 -0.379135 0.709728 -0.123890 -0.951651 -2.241243 -6.937042 7.985658 0.000000 0.000000 0.000000 6.665289 -0.050621 -1.689948 -11.621481 5.039629 -2.875931 -2.479346 20.744887 9.819361 17.374868 -5.379381 -20.985216 0.000000 0.000000 0.000000 -17.304763 -24.410243 3.067140 -51.740452 -18.835481 3.039859 18.114962 -39.432961 -8.806873 0.000000 0.000000 0.000000 17.071363 22.428198 18.162326 77.647716 52.134341 35.679711 170.335997 78.503973 -172.272852 0.000000 0.000000 0.000000 
0.015048 0.944505 0.049990 -2.375208 14.193331 3.967723 6.514575 -0.520207 -5.403169 -1.153961 0.105480 -0.718423 -4.759018 -3.721016 8.419151 0.000000 0.000000 0.000000 -0.785105 0.050669 -0.366162 0.917627 -0.151443 -0.985766 -2.336794 -7.103932 7.781073 0.000000 0.000000 0.000000 6.568892 -0.044930 -1.739118 -11.643856 5.046780 -2.844154 -2.459325 20.967052 9.845915 17.485148 -5.457404 -20.858948 0.000000 0.000000 0.000000 -17.030384 -24.342444 2.983868 -51.295520 -18.583919 2.920900 18.217705 -40.582885 -9.234043 0.000000 0.000000 0.000000 16.684341 22.753662 18.248556 78.788681 52.687931 37.124767 174.676703 80.160491 -167.351929 0.000000 0.000000 0.000000 
0.013714 0.944505 0.050039 -2.377937 14.207858 3.952433 6.465447 -0.517378 -5.358137 -0.937915 0.095000 -0.902187 -5.046222 -4.144524 8.565909 0.000000 0.000000 0.000000 -0.809617 0.041098 -0.272177 1.114093 -0.177565 -1.032198 -2.442398 -7.325542 7.698204 0.000000 0.000000 0.000000 6.585834 -0.047094 -1.714522 -11.830389 5.112908 -2.997248 -2.479705 21.055465 10.037521 17.408329 -5.483129 -20.599685 0.000000 0.000000 0.000000 -16.598823 -24.215206 2.980336 -50.944640 -18.411458 2.775933 17.926206 -41.811567 -9.481716 0.000000 0.000000 0.000000 16.069133 23.181227 18.224052 80.139068 53.396933 38.936915 -179.105187 81.743401 -160.635092 0.000000 0.000000 0.000000 
0.012246 0.944353 0.050328 -2.351664 14.095376 3.984080 6.551348 -0.516935 -5.328792 -0.886243 0.094467 -1.008976 -5.125317 -4.425295 8.384575 0.000000 0.000000 0.000000 -0.591596 0.039084 -0.257084 1.137976 -0.184484 -1.192977 -2.500817 -7.453603 7.605700 0.000000 0.000000 0.000000 6.308815 -0.039296 -1.723462 -11.885885 5.135138 -3.026211 -2.609430 21.302762 9.816446 17.643824 -5.697576 -20.361460 0.000000 0.000000 0.000000 -16.685208 -24.322332 2.933949 -50.257098 -17.914588 2.663233 17.910370 -42.751723 -9.782682 0.000000 0.000000 0.000000 15.899533 23.500805 18.392287 80.760477 53.730438 39.777621 -177.140828 82.579294 -158.752854 0.000000 0.000000 0.000000 
0.010774 0.944321 0.050928 -2.330919 13.798959 3.965431 6.875692 -0.514324 -5.198117 -1.017356 0.106930 -1.111469 -5.350507 -4.560016 8.844384 0.000000 0.000000 0.000000 -0.362539 0.034180 -0.219490 1.080993 -0.177349 -1.217633 -2.423844 -7.300129 7.498396 0.000000 0.000000 0.000000 6.318257 -0.044734 -1.640939 -11.966624 5.157817 -3.290686 -2.982258 21.474349 9.824873 17.986013 -5.995687 -20.155290 0.000000 0.000000 0.000000 -16.632175 -24.319943 2.929742 -49.647600 -17.479200 2.495108 17.760230 -43.456842 -9.909639 0.000000 0.000000 0.000000 15.963546 23.572813 18.498902 81.454268 53.998473 40.538070 -179.021755 83.226942 -161.117183 0.000000 0.000000 0.000000 
0.009490 0.944270 0.051740 -2.360126 13.262161 3.967421 7.047734 -0.508418 -5.143479 -0.986676 0.101811 -0.934812 -5.302985 -4.682658 8.622053 0.000000 0.000000 0.000000 -0.237794 0.035803 -0.240574 1.021062 -0.164462 -1.058069 -2.370569 -7.213493 7.353570 0.000000 0.000000 0.000000 6.283738 -0.036798 -1.695429 -12.209462 5.249138 -3.518829 -3.154726 21.804909 9.797419 18.072701 -6.077877 -20.068894 0.000000 0.000000 0.000000 -16.556496 -24.544117 3.037348 -49.462292 -17.311293 2.433511 17.386707 -43.920824 -9.877350 0.000000 0.000000 0.000000 15.576259 23.640724 18.357309 82.455363 54.271382 41.706877 -174.513946 83.167365 -156.084781 0.000000 0.000000 0.000000 
